<?xml version="1.0" standalone="no"?>
<!DOCTYPE svg PUBLIC "-//W3C//DTD SVG 20010904//EN"
 "http://www.w3.org/TR/2001/REC-SVG-20010904/DTD/svg10.dtd">
<svg version="1.0" xmlns="http://www.w3.org/2000/svg"
 width="1024.000000pt" height="1024.000000pt" viewBox="0 0 1024.000000 1024.000000"
 preserveAspectRatio="xMidYMid meet">
<metadata>
Created by potrace 1.16, written by Peter Selinger 2001-2019
</metadata>
<g transform="translate(0.000000,1024.000000) scale(0.100000,-0.100000)"
fill="" stroke="">
<path d="M0 5120 l0 -5120 5120 0 5120 0 0 5120 0 5120 -5120 0 -5120 0 0
-5120z m7071 2458 c-39 -127 -132 -413 -173 -533 -59 -173 -14 -115 -417 -535
-217 -226 -466 -488 -876 -923 -104 -111 -304 -318 -444 -459 l-254 -258 228
7 c163 4 226 3 221 -5 -3 -6 -46 -41 -94 -78 -92 -72 -736 -597 -762 -621 -13
-13 14 -14 208 -11 122 2 222 1 221 -2 0 -3 -98 -78 -217 -168 -119 -90 -285
-216 -369 -280 -451 -348 -758 -581 -761 -577 -3 2 13 26 35 52 46 56 262 359
492 693 90 129 194 278 231 330 l69 95 -278 3 -278 2 96 102 c53 56 177 187
276 291 99 104 226 238 283 298 l103 108 -79 3 -80 3 257 274 c390 418 1182
1253 1447 1527 l237 244 -7 65 -7 65 53 24 c222 101 634 285 640 286 3 0 3
-10 -1 -22z m-2806 -1773 c-8 -34 -17 -139 -21 -240 -3 -110 -12 -201 -21
-234 -31 -115 -132 -228 -256 -286 -39 -19 -148 -55 -242 -79 -313 -83 -520
-176 -714 -322 -61 -46 -113 -84 -114 -84 -1 0 -1 49 1 108 l3 109 108 71
c191 127 432 228 685 287 118 27 229 75 288 125 58 48 115 143 144 239 49 164
137 382 149 370 2 -3 -2 -32 -10 -64z m1695 -1214 c0 -5 -32 -43 -70 -84 -74
-79 -135 -122 -288 -202 -138 -73 -231 -172 -284 -304 -22 -54 -23 -69 -26
-413 l-3 -358 -80 0 -81 0 3 278 c5 434 13 495 86 635 47 89 146 191 228 234
33 17 112 46 175 63 128 36 235 82 295 128 46 35 45 35 45 23z m-1158 -998
c16 -15 33 -44 40 -64 9 -31 8 -43 -8 -75 -23 -47 -76 -84 -118 -84 -44 0 -90
31 -110 75 -58 121 100 240 196 148z"/>
<path d="M6609 7148 c-80 -91 -150 -165 -640 -678 -217 -228 -487 -514 -599
-635 -112 -121 -260 -279 -329 -350 -69 -72 -168 -177 -220 -233 l-93 -102
128 1 129 1 138 146 c76 81 325 347 555 592 229 244 548 579 708 745 160 165
322 335 361 378 l69 79 -66 64 c-37 35 -69 64 -72 64 -3 0 -34 -33 -69 -72z"/>
</g>
</svg>
